<svg xmlns="http://www.w3.org/2000/svg" width="41" height="41" viewBox="0 0 41 41">
  <g id="Group_1428" data-name="Group 1428" transform="translate(0.238 0.238)">
    <rect id="Rectangle_1478" data-name="Rectangle 1478" width="41" height="41" transform="translate(-0.238 -0.238)" fill="none"/>
    <path id="facebook-square" d="M31.281,35.352V59.929a3.352,3.352,0,0,1-3.352,3.352H21.973V50.908H26.2l.607-4.72H21.973V43.172c0-1.369.377-2.3,2.339-2.3h2.5V36.657a33.611,33.611,0,0,0-3.645-.189c-3.6,0-6.075,2.2-6.075,6.242V46.2H12.847v4.72H17.1V63.281H3.352A3.352,3.352,0,0,1,0,59.929V35.352A3.352,3.352,0,0,1,3.352,32H27.929A3.352,3.352,0,0,1,31.281,35.352Z" transform="translate(4.803 -25.737)" fill="#fff"/>
  </g>
</svg>
