<?xml version="1.0" standalone="no"?>
<!DOCTYPE svg PUBLIC "-//W3C//DTD SVG 20010904//EN"
 "http://www.w3.org/TR/2001/REC-SVG-20010904/DTD/svg10.dtd">
<svg version="1.0" xmlns="http://www.w3.org/2000/svg"
 viewBox="0 0 264.000000 260.000000"
 preserveAspectRatio="xMidYMid meet">

<g transform="translate(0.000000,260.000000) scale(0.100000,-0.100000)"
fill="#431385" stroke="none">
<path d="M1188 2355 c-282 -46 -535 -205 -697 -439 -316 -458 -214 -1091 231
-1426 360 -271 864 -277 1233 -15 74 53 207 191 258 268 58 88 115 217 144
325 23 85 26 117 26 257 0 140 -3 172 -26 257 -89 336 -329 603 -647 719 -168
61 -359 81 -522 54z m422 -756 c0 -430 -1 -467 -20 -549 -56 -235 -268 -420
-502 -438 l-68 -5 0 106 c0 112 2 117 55 117 98 0 241 113 286 225 24 60 24
60 27 533 l3 472 110 0 109 0 0 -461z"/>
</g>
</svg>
