<svg xmlns="http://www.w3.org/2000/svg" width="658.39" height="221.421" viewBox="0 0 658.39 221.421">
  <g id="logo-full-white" transform="translate(329.195 110.711)">
    <g id="Group_1584" data-name="Group 1584" transform="translate(-329.195 -110.711)">
      <g id="Group_1582" data-name="Group 1582" transform="translate(-12.868 -66.878)">
        <path id="Path_1131" data-name="Path 1131" d="M90.19,66.878v131.37a84.286,84.286,0,0,1-77.322,83.9V262.927a65.137,65.137,0,0,0,58.186-64.684V66.878Z" fill="#fff"/>
        <path id="Path_1132" data-name="Path 1132" d="M283.5,152.65a83.788,83.788,0,0,1-167.577-.018l-.118-85.754h19.135l.12,85.763a64.651,64.651,0,1,0,129.3-.009l-.118-85.754h19.136Z" fill="#fff"/>
        <path id="Path_1133" data-name="Path 1133" d="M476.913,151.992v84.437H457.777V151.992a64.652,64.652,0,0,0-129.3,0v84.437H309.337V151.992a83.788,83.788,0,1,1,167.576,0Z" fill="#fff"/>
        <path id="Path_1134" data-name="Path 1134" d="M671.258,152.847a84.326,84.326,0,1,1-84.323-84.328A84.42,84.42,0,0,1,671.258,152.847Zm-19.132,0a65.193,65.193,0,1,0-65.191,65.191A65.268,65.268,0,0,0,652.126,152.847Z" fill="#fff"/>
      </g>
      <g id="Group_1583" data-name="Group 1583" transform="translate(-12.868 -66.878)">
        <path id="Path_1135" data-name="Path 1135" d="M107.843,261.98H119.01c6.234,0,9,3.473,9,8.208,0,4.7-2.8,8.247-9,8.247h-8.326v9.352h-2.841Zm11.207,13.851c4.459,0,6.076-2.447,6.076-5.643s-1.617-5.6-6.076-5.6h-8.366v11.247Z" fill="#fff"/>
        <path id="Path_1136" data-name="Path 1136" d="M135.42,261.98h11.4c6.076,0,8.76,3.394,8.76,7.971,0,4.261-2.289,7.1-6.511,7.892l7.458,9.944H153.1L146.113,278h-7.852v9.787H135.42ZM146.863,275.4c4.3,0,5.84-2.367,5.84-5.445s-1.539-5.367-5.84-5.367h-8.6V275.4Z" fill="#fff"/>
        <path id="Path_1137" data-name="Path 1137" d="M162.761,274.883c0-7.733,5.681-13.416,13.731-13.416s13.733,5.683,13.733,13.416S184.542,288.3,176.492,288.3,162.761,282.618,162.761,274.883Zm24.622,0A10.891,10.891,0,1,0,176.492,285.7,10.444,10.444,0,0,0,187.383,274.883Z" fill="#fff"/>
        <path id="Path_1138" data-name="Path 1138" d="M203.358,264.584H194.6v-2.6H214.96v2.6H206.2v23.2h-2.841Z" fill="#fff"/>
        <path id="Path_1139" data-name="Path 1139" d="M222.609,261.98H241.55v2.6h-16.1v8.8h13.812v2.605H225.45v9.193h16.1v2.6H222.609Z" fill="#fff"/>
        <path id="Path_1140" data-name="Path 1140" d="M248.647,274.883c0-7.733,5.682-13.416,13.732-13.416,6.472,0,11.443,3.67,13.1,9.155h-3a10.813,10.813,0,1,0,0,8.523h3c-1.657,5.485-6.628,9.154-13.1,9.154C254.329,288.3,248.647,282.618,248.647,274.883Z" fill="#fff"/>
        <path id="Path_1141" data-name="Path 1141" d="M288.732,264.584h-8.759v-2.6h20.361v2.6h-8.761v23.2h-2.841Z" fill="#fff"/>
        <path id="Path_1142" data-name="Path 1142" d="M331.182,276.461,320.567,261.98H324l8.642,12.114,8.6-12.114H344.6l-10.576,14.442v11.365h-2.841Z" fill="#fff"/>
        <path id="Path_1143" data-name="Path 1143" d="M347.829,274.883c0-7.733,5.682-13.416,13.732-13.416s13.732,5.683,13.732,13.416S369.61,288.3,361.561,288.3,347.829,282.618,347.829,274.883Zm24.622,0a10.891,10.891,0,1,0-10.89,10.812A10.444,10.444,0,0,0,372.451,274.883Z" fill="#fff"/>
        <path id="Path_1144" data-name="Path 1144" d="M382.626,277.646V261.98h2.841v15.666c0,4.972,2.762,8.049,7.971,8.049s7.971-3.117,7.971-8.049V261.98h2.762v15.666c0,6.511-3.827,10.653-10.693,10.653C386.493,288.3,382.626,284.157,382.626,277.646Z" fill="#fff"/>
        <path id="Path_1145" data-name="Path 1145" d="M412.768,261.98h11.4c6.076,0,8.76,3.394,8.76,7.971,0,4.261-2.289,7.1-6.511,7.892l7.458,9.944h-3.434L423.461,278h-7.853v9.787h-2.84ZM424.211,275.4c4.3,0,5.84-2.367,5.84-5.445s-1.539-5.367-5.84-5.367h-8.6V275.4Z" fill="#fff"/>
        <path id="Path_1146" data-name="Path 1146" d="M456.007,261.98h11.167c6.234,0,9,3.473,9,8.208,0,4.7-2.8,8.247-9,8.247h-8.326v9.352h-2.841Zm11.207,13.851c4.459,0,6.076-2.447,6.076-5.643s-1.617-5.6-6.076-5.6h-8.366v11.247Z" fill="#fff"/>
        <path id="Path_1147" data-name="Path 1147" d="M483.584,261.98h11.4c6.076,0,8.76,3.394,8.76,7.971,0,4.261-2.289,7.1-6.511,7.892l7.458,9.944h-3.433L494.277,278h-7.852v9.787h-2.841ZM495.027,275.4c4.3,0,5.84-2.367,5.84-5.445s-1.539-5.367-5.84-5.367h-8.6V275.4Z" fill="#fff"/>
        <path id="Path_1148" data-name="Path 1148" d="M511.753,272.516c0-6.787,3.945-11.049,11.127-11.049,7.222,0,11.167,4.262,11.167,11.049v15.271h-2.841v-8.681H514.515v8.681h-2.762Zm19.453,3.985v-3.985c0-5.209-2.841-8.444-8.365-8.444-5.445,0-8.326,3.235-8.326,8.444V276.5Z" fill="#fff"/>
        <path id="Path_1149" data-name="Path 1149" d="M541.382,274.883c0-7.733,5.681-13.416,13.731-13.416,6.472,0,11.444,3.67,13.1,9.155h-3a10.813,10.813,0,1,0,0,8.523h3c-1.657,5.485-6.629,9.154-13.1,9.154C547.063,288.3,541.382,282.618,541.382,274.883Z" fill="#fff"/>
        <path id="Path_1150" data-name="Path 1150" d="M581.467,264.584h-8.76v-2.6h20.361v2.6h-8.76v23.2h-2.841Z" fill="#fff"/>
        <path id="Path_1151" data-name="Path 1151" d="M600.836,261.98h2.842v25.807h-2.842Z" fill="#fff"/>
        <path id="Path_1152" data-name="Path 1152" d="M611.686,274.883c0-7.733,5.681-13.416,13.731-13.416,6.472,0,11.443,3.67,13.1,9.155h-3a10.813,10.813,0,1,0,0,8.523h3c-1.658,5.485-6.629,9.154-13.1,9.154C617.367,288.3,611.686,282.618,611.686,274.883Z" fill="#fff"/>
        <path id="Path_1153" data-name="Path 1153" d="M646.561,261.98H665.5v2.6H649.4v8.8h13.812v2.605H649.4v9.193h16.1v2.6h-18.94Z" fill="#fff"/>
      </g>
    </g>
  </g>
</svg>
